<?xml version="1.0" encoding="UTF-8" standalone="no"?>
<!-- Created with Inkscape (http://www.inkscape.org/) -->

<svg
   width="297mm"
   height="297mm"
   viewBox="0 0 297 297"
   version="1.1"
   id="svg5"
   xml:space="preserve"
   xmlns:xlink="http://www.w3.org/1999/xlink"
   xmlns="http://www.w3.org/2000/svg"
   xmlns:svg="http://www.w3.org/2000/svg"><defs
     id="defs2"><linearGradient
       id="linearGradient2215"><stop
         style="stop-color:#f23600;stop-opacity:1;"
         offset="0"
         id="stop2211" /><stop
         style="stop-color:#f28200;stop-opacity:1;"
         offset="1"
         id="stop2213" /></linearGradient><linearGradient
       id="linearGradient2206"><stop
         style="stop-color:#317184;stop-opacity:1;"
         offset="0"
         id="stop2202" /><stop
         style="stop-color:#65e3c7;stop-opacity:1;"
         offset="1"
         id="stop2204" /></linearGradient><linearGradient
       xlink:href="#linearGradient2206"
       id="linearGradient2208"
       x1="101.29262"
       y1="100.00516"
       x2="37.789867"
       y2="146.92473"
       gradientUnits="userSpaceOnUse" /><linearGradient
       xlink:href="#linearGradient2215"
       id="linearGradient2217"
       x1="59.911121"
       y1="162.61198"
       x2="54.892441"
       y2="140.45535"
       gradientUnits="userSpaceOnUse" /><linearGradient
       xlink:href="#linearGradient2206"
       id="linearGradient8894"
       gradientUnits="userSpaceOnUse"
       x1="101.29262"
       y1="100.00516"
       x2="37.789867"
       y2="146.92473" /><linearGradient
       xlink:href="#linearGradient2206"
       id="linearGradient8896"
       gradientUnits="userSpaceOnUse"
       x1="101.29262"
       y1="100.00516"
       x2="37.789867"
       y2="146.92473" /></defs><g
     id="layer2"
     style="display:inline"><g
       id="g7312"
       style="fill:url(#linearGradient2208);fill-opacity:1;stroke-width:0.826928"
       transform="matrix(-1.1787362,-0.27014099,-0.27014099,1.1787362,293.88321,60.421781)"><path
         id="path6706"
         style="fill:url(#linearGradient8894);fill-opacity:1;stroke:none;stroke-width:0.218791px;stroke-linecap:butt;stroke-linejoin:miter;stroke-opacity:1"
         d="M 76.147506,72.681288 63.234518,99.825014 c -1.437595,1.079856 -2.546124,1.981246 -3.325766,2.704536 1.100001,-3.017535 1.910627,-5.156858 2.432158,-6.418471 0.79489,-2.072745 1.195072,-3.630154 1.200564,-4.671794 0.0067,-0.646745 -0.29203,-1.194145 -0.896947,-1.642829 -0.526507,-0.31797 -1.038842,-0.647193 -1.537145,-0.986884 L 51.434181,100.33394 C 51.104755,99.441036 50.899238,98.5483 50.817454,97.655776 60.915002,85.538454 67.529367,77.625879 70.659994,73.918078 c 2.494158,-0.555851 4.323277,-0.968066 5.487512,-1.23679 z m -45.097821,-10.293569 1.210379,3.490702 -8.722967,14.109844 c 2.885832,-2.495512 5.778372,-4.989645 8.677863,-7.482027 3.394417,-2.914498 6.283366,-5.296703 8.667176,-7.146233 0.24019,-0.198632 0.45677,-0.303897 0.649775,-0.316038 0.179345,-0.01527 0.364404,0.01291 0.554748,0.08472 0.257754,0.115444 0.406983,0.178097 0.447961,0.187489 L 43.354149,65.503998 26.2043,94.805211 c -0.175454,-1.844143 -0.282098,-3.038248 -0.319887,-3.582451 3.451516,-6.452905 6.08391,-11.374439 7.897388,-14.764 0.832678,-1.528542 1.432949,-2.659162 1.80015,-3.392414 L 19.227134,87.033523 c -1.204313,2.401711 -2.186902,4.3188 -2.947736,5.751061 -0.03194,-1.162964 -0.09334,-2.036899 -0.184884,-2.621607 l -0.274479,-1.75412 z m 29.445793,7.298121 c 0.353198,1.011098 0.720673,2.011554 1.102077,3.00093 0.42806,1.253746 0.498701,2.495976 0.21204,3.726856 -0.286661,1.23088 -1.143972,3.317355 -2.571799,6.259757 -1.20786,2.513643 -2.379292,4.739935 -3.513892,6.678452 -0.276377,0.472203 -0.859457,1.296962 -1.74979,2.474052 -1.177709,1.562214 -2.134286,2.653326 -2.869403,3.274073 -0.918897,0.775935 -2.250128,1.541984 -3.993907,2.297992 -1.520796,0.666179 -2.39712,0.972726 -2.629329,0.919509 -0.109275,-0.02504 -0.676948,-0.352192 -1.702644,-0.98187 l -2.653248,-1.580914 c 2.593636,-6.734072 4.106801,-10.643391 4.540168,-11.727903 l 5.388642,1.234961 -3.142058,5.368283 c -0.90312,-1.024382 -1.526382,-1.758901 -1.869997,-2.204074 -0.130201,1.069432 -0.196276,1.631743 -0.198049,1.68771 -0.160709,1.597983 -0.06173,2.607507 0.296428,3.027827 0.145819,0.174351 0.844873,0.475233 2.0971,0.903149 l 8.035465,-8.05179 c 0.26183,-0.44735 0.74818,-1.463404 1.458811,-3.048103 0.917824,-2.044571 1.474227,-3.537725 1.669178,-4.479572 0.146877,-0.727373 -0.01673,-1.638426 -0.491084,-2.733665 l -1.08097,-2.36202 c -0.280282,0.161257 -0.609139,0.339846 -0.98681,0.535157 -1.42518,0.688091 -2.328296,1.171322 -2.708627,1.450582 -0.761549,0.586504 -1.604782,1.59137 -2.530416,3.014049 -1.634847,2.528532 -2.849354,4.378245 -3.643185,5.549266 l 4.701636,-11.606603 z m -6.926624,-1.545021 -17.366453,28.321669 -8.391363,-4.164113 5.095941,-3.863354 3.349267,2.416383 c 2.352043,-3.886236 3.811269,-6.299997 4.377682,-7.241273 0.02909,-0.0497 0.151839,-0.232851 0.368258,-0.549676 0.187327,-0.26712 0.296592,-0.453355 0.327458,-0.559027 l -3.237316,-0.741923 c 1.789177,-3.056893 2.786022,-4.773136 2.990555,-5.149058 1.627953,1.162313 2.543492,1.794687 2.746609,1.89761 1.697108,-3.190738 2.977013,-5.589221 3.83967,-7.195451 l -6.572325,0.945761 c 0.566227,-2.237895 1.004634,-3.912992 1.315067,-5.025678 z m 29.418535,6.868805 5.087238,4.886559 -11.558133,21.611317 24.486166,-8.80498 2.45766,-0.05015 -0.61241,-0.256457 15.09138,-7.808903 4.20001,3.546029 -6.1128,4.61058 10.72833,-3.014156 2.00055,6.42068 5.9903,-7.698746 6.27745,0.618497 -7.54233,17.885316 -1.92654,0.25882 2.08855,4.93784 -3.55629,2.947 -5.93407,-1e-4 3.9e-4,-6.37722 3.62027,-4.92415 -2.5437,-3.11608 -5e-5,-8.748733 -17.20581,6.847177 -1.79274,-0.750691 -0.69447,5.315817 -4.55839,0.74514 -5.119401,-2.99966 1.795456,-3.064258 -18.020191,11.504088 3.991202,4.06386 -1.293855,3.68393 10.975123,-7.51009 6.967076,2.45344 -11.312423,20.34488 8.526594,-2.97957 0.620701,3.97479 11.729978,-13.67465 6.5765,4.6643 -8.87938,17.84822 6.4918,-4.14996 1.17458,5.66412 14.54662,-19.69804 5.13188,1.52019 7.65019,-16.32949 6.31299,4.19251 -7.95705,22.3714 -2.30052,0.3083 2.49352,5.88898 -4.24624,3.51467 -5.63196,2.2e-4 -6.32565,22.38955 -2.74496,-0.83373 0.79194,9.46197 -6.33859,7.60144 -12.00004,-5.0553 -1.32617,-10.80908 4.6693,-5.03683 -1.30098,-7.87469 4.08938,-10.50581 -15.842424,22.83068 -5.360857,-3.78981 -2.12452,7.45652 -9.726941,-0.56185 -2.906915,-4.55706 4.688841,-7.53948 4.916375,-0.6578 -2.48554,-5.71326 11.432629,-19.05342 -11.16157,11.39109 -6.638621,-3.19727 -3.310311,4.80698 -7.373599,2.97078 -4.093506,-4.14721 0.30818,-8.93469 5.729742,-2.06241 -2.104485,-4.89378 14.880035,-14.79821 -3.243535,-2.91012 -1.490816,-1.77893 -3.642427,5.25679 -5.725983,1.0374 -3.044078,-3.81976 2.426901,-6.53896 6.524621,-0.0644 -1.45562,-1.73587 c -0.01859,-0.0216 -0.03645,-0.0419 -0.05611,-0.0675 l -0.02464,-0.029 0.0035,-10e-4 c -0.300505,-0.40519 -0.71949,-1.25918 -1.26098,-2.57823 -0.883081,-2.090874 -1.293363,-3.918323 -1.230043,-5.482253 0.02483,-0.78353 0.741354,-2.55032 2.149314,-5.299969 2.038764,-3.986219 3.176415,-6.233949 3.4127,-6.743526 z m -2.48042,4.674309 -7.909178,10.575142 -0.632893,4.336941 c -0.267853,1.939852 -0.315112,3.211437 -0.141616,3.814927 0.122405,0.479036 0.537141,0.855964 1.243881,1.130679 l 1.631226,0.627258 8.380797,-18.289061 z m -11.258748,-0.297387 -5.520487,6.176171 1.779996,1.803322 z" /><path
         style="font-variation-settings:normal;opacity:1;vector-effect:none;fill:url(#linearGradient8896);fill-opacity:1;stroke:none;stroke-width:0.218791px;stroke-linecap:butt;stroke-linejoin:miter;stroke-miterlimit:4;stroke-dasharray:none;stroke-dashoffset:0;stroke-opacity:1;-inkscape-stroke:none;stop-color:#000000;stop-opacity:1"
         d="m 133.48084,106.95544 3.20436,19.31489 2.61054,-2.05517 -5.20429,-26.718824 z"
         id="path7262" /></g></g><g
     id="layer1"
     style="display:inline"><g
       id="g925"
       style="fill:#f23600;fill-opacity:1;stroke-width:0.826928"
       transform="matrix(1.2092953,0,0,1.2092953,-25.62901,-39.139566)"><path
         id="text283"
         style="font-size:48.1878px;line-height:1.25;font-family:Westmeath;-inkscape-font-specification:Westmeath;fill:url(#linearGradient2217);fill-opacity:1;stroke-width:0.21879"
         d="m 83.080395,127.3867 -4.409989,4.74819 1.789962,17.86822 c -2.251473,-3.02975 -4.513897,-6.05673 -6.78744,-9.08099 -2.664161,-3.53609 -5.007248,-6.4147 -7.028883,-8.63636 -0.194322,-0.24013 -0.426028,-0.35891 -0.694819,-0.35624 -0.246721,-0.003 -0.534396,0.0524 -0.863479,0.16619 -0.459532,0.1782 -0.722575,0.27554 -0.788786,0.29199 l -1.324245,0.32898 2.326431,37.20129 c 1.661421,-2.46337 2.727247,-4.05775 3.197376,-4.78333 -0.04363,-8.22431 -0.07715,-14.4963 -0.100757,-18.8163 -0.03208,-1.94668 -0.03278,-3.38867 -0.0017,-4.32564 l 12.893557,16.93723 c -0.07873,2.42899 -0.124463,4.4527 -0.13955,6.10305 -0.225214,2.38307 -0.337395,4.55021 -0.333346,6.49545 0.0013,0.60625 0.147503,1.67351 0.438815,3.20132 0.381009,2.02736 0.838284,3.45498 1.371944,4.28253 0.667075,1.03443 1.932934,2.09026 3.796958,3.16792 1.61995,0.94831 2.618224,1.3991 2.994916,1.35244 0.177267,-0.022 1.262385,-0.37951 3.255707,-1.07326 l 5.116362,-1.73494 c 1.91051,-8.53489 3.008621,-13.49063 3.293891,-14.86645 l -8.741752,1.0834 0.01428,6.89204 c 2.147434,-1.19159 3.652881,-2.04853 4.516194,-2.57039 -0.706477,1.33225 -1.081778,2.03334 -1.125962,2.10265 -1.104065,1.9879 -2.08781,3.22678 -2.951189,3.71672 -0.354201,0.20346 -1.605913,0.51761 -3.754941,0.9434 l -4.776091,-10.61088 c -0.0012,-0.57434 0.151153,-1.86948 0.457253,-3.88621 0.393537,-2.60204 0.843794,-4.49326 1.351111,-5.67317 0.397057,-0.91093 1.392348,-2.02351 2.985425,-3.33792 l 3.518052,-2.82941 c 0.266432,0.22232 0.588318,0.46977 0.965674,0.74219 1.464841,0.96752 2.352964,1.63933 2.664044,2.0157 0.600069,0.78741 0.968465,2.09813 1.105267,3.93233 0.228424,3.25907 0.422031,5.64457 0.580327,7.15694 L 100.8522,150.8061 90.404674,146.83466 c -1.349467,1.2204 -2.710151,2.42583 -4.081844,3.61707 -0.641968,0.58584 -1.203712,1.17412 -1.689715,1.76453 z m -27.278202,3.8725 -6.089606,-1.0717 5.261486,24.79079 c -0.842712,-0.46175 -1.531913,-0.8515 -2.019858,-1.14748 -1.759646,-0.97126 -3.248209,-1.49237 -4.465757,-1.56276 -1.727469,-0.0685 -4.088645,0.31432 -7.082826,1.14782 -2.084133,0.58466 -3.493197,1.04355 -4.227124,1.37634 l -0.809484,0.36666 1.531389,9.33062 -8.925555,13.2371 0.482203,-14.55296 c -2.666389,0.41763 -4.577892,0.73904 -5.734398,0.96392 l -2.06e-4,33.29815 c 1.79901,1.63838 3.212649,2.89126 4.240654,3.75864 0.80313,-4.52965 1.622276,-8.75461 2.457531,-12.67388 l 8.432817,11.5651 c 2.280887,-1.54201 4.031573,-2.81085 5.252329,-3.80673 l -11.950327,-12.33577 6.90618,-13.35776 2.781836,14.32963 c 0.09193,0.8429 0.598106,1.59615 1.518745,2.25985 1.193112,0.76949 2.138549,1.37251 2.836461,1.80958 l -0.929742,-11.81506 12.450288,7.81982 -1.381208,-8.41598 -9.358673,-4.45463 c 2.802174,-2.28627 4.323103,-3.54929 4.56212,-3.78872 1.206667,-1.26793 2.392022,-3.23065 3.556213,-5.8881 0.368131,-0.85181 0.665058,-1.54854 0.976764,-2.27737 l 1.30643,6.15546 c 0.641121,-2.45303 1.051274,-3.98231 1.230246,-4.58767 0.351369,-1.10943 0.515434,-1.80586 0.491985,-2.09008 -0.206613,-3.37913 -0.694174,-7.97476 -1.462203,-13.78583 -1.135462,-8.75688 -1.748349,-13.62234 -1.83871,-14.597 z m -8.227611,26.04284 c 1.459303,1.40232 2.67785,2.53682 3.655101,3.40419 l -7.526399,7.98353 -2.497861,-9.28626 0.939099,-0.42563 c 0.08634,-0.0392 0.802773,-0.26572 2.149547,-0.67983 1.766916,-0.5391 2.86037,-0.87101 3.280513,-0.996 z"
         transform="matrix(1.1936075,-0.15994816,0.17860361,0.81386276,0,0)" /></g><path
       style="fill:#f2ac00;fill-opacity:1;stroke:none;stroke-width:0.264582px;stroke-linecap:butt;stroke-linejoin:miter;stroke-opacity:1"
       d="m 64.777966,72.506976 7.719339,1.858244 6.186465,-5.51707 0.875442,-8.258485 -8.9707,-2.493768 -9.465639,3.936272 z"
       id="path666" /><path
       style="font-variation-settings:normal;opacity:1;vector-effect:none;fill:#ff832c;fill-opacity:1;stroke:none;stroke-width:0.264583px;stroke-linecap:butt;stroke-linejoin:miter;stroke-miterlimit:4;stroke-dasharray:none;stroke-dashoffset:0;stroke-opacity:1;-inkscape-stroke:none;stop-color:#000000;stop-opacity:1"
       d="m 93.802991,116.97524 4.68835,3.8779 -2.16911,30.02609 -6.32664,4.32161 -2.247019,-1.08524 -1.701115,-3.37931 -0.544425,-25.96671 1.512248,-5.46805 z"
       id="path434-3" /><path
       style="font-variation-settings:normal;opacity:1;vector-effect:none;fill:#ff832c;fill-opacity:1;stroke:none;stroke-width:0.264583px;stroke-linecap:butt;stroke-linejoin:miter;stroke-miterlimit:4;stroke-dasharray:none;stroke-dashoffset:0;stroke-opacity:1;-inkscape-stroke:none;stop-color:#000000;stop-opacity:1"
       d="m 109.63387,104.21777 -3.76786,2.2506 -2.27309,20.84697 0.36677,2.0894 3.95536,0.77326 3.24429,-1.89583 4.23587,-19.40261 -1.46037,-2.9914 z"
       id="path434-3-6-7" /><path
       style="fill:#ff832c;fill-opacity:1;stroke:none;stroke-width:0.264583px;stroke-linecap:butt;stroke-linejoin:miter;stroke-opacity:1"
       d="m 157.93666,121.3366 -8.15164,21.07201 -4.30691,0.49984 -1.7412,-2.01633 -0.32504,-3.09129 4.66272,-20.21326 3.85265,-1.38189 5.81743,3.05481 z"
       id="path430-6" /><path
       style="fill:#b54b00;fill-opacity:1;stroke:none;stroke-width:0.264583px;stroke-linecap:butt;stroke-linejoin:miter;stroke-opacity:1"
       d="m 157.74464,119.26049 -5.81743,-3.05481 -3.85266,1.38189 0.51412,2.92353 3.71131,1.96402 5.63668,-1.13852 z"
       id="path3398-2" /><path
       style="fill:#471e00;fill-opacity:1;stroke:none;stroke-width:0.264583px;stroke-linecap:butt;stroke-linejoin:miter;stroke-opacity:1"
       d="m 152.29998,122.47512 -6.82187,20.43334 4.30691,-0.49985 8.15164,-21.07201 z"
       id="path3400-9" /><path
       style="font-variation-settings:normal;vector-effect:none;fill:#8b3a00;fill-opacity:1;stroke:none;stroke-width:0.264583px;stroke-linecap:butt;stroke-linejoin:miter;stroke-miterlimit:4;stroke-dasharray:none;stroke-dashoffset:0;stroke-opacity:1;-inkscape-stroke:none;stop-color:#000000"
       d="m 152.29998,122.47512 -3.71129,-1.96402 -4.85178,20.38102 1.7412,2.01633 z"
       id="path4944" /><path
       style="fill:#ff832c;fill-opacity:1;stroke:none;stroke-width:0.264583px;stroke-linecap:butt;stroke-linejoin:miter;stroke-opacity:1"
       d="m 167.72098,146.85648 -16.24756,21.52255 -5.10724,-0.83474 -0.99416,-1.93114 0.29257,-4.6076 11.96182,-21.67785 4.87423,-0.3263 4.30376,4.17847 z"
       id="path430-6-3" /><path
       style="fill:#b54b00;fill-opacity:1;stroke:none;stroke-width:0.264583px;stroke-linecap:butt;stroke-linejoin:miter;stroke-opacity:1"
       d="m 166.80442,143.1799 -4.30376,-4.17848 -4.87423,0.32631 -0.22228,2.59616 5.43748,5.92738 4.87935,-0.99479 z"
       id="path3398-2-6" /><path
       style="fill:#471e00;fill-opacity:1;stroke:none;stroke-width:0.264583px;stroke-linecap:butt;stroke-linejoin:miter;stroke-opacity:1"
       d="m 162.84163,147.85127 -16.47545,19.69303 5.10724,0.83473 16.24756,-21.52255 z"
       id="path3400-9-06" /><path
       style="font-variation-settings:normal;vector-effect:none;fill:#8b3a00;fill-opacity:1;stroke:none;stroke-width:0.264583px;stroke-linecap:butt;stroke-linejoin:miter;stroke-miterlimit:4;stroke-dasharray:none;stroke-dashoffset:0;stroke-opacity:1;-inkscape-stroke:none;stop-color:#000000"
       d="m 162.84163,147.85127 -5.43748,-5.92738 -12.03213,23.68926 0.99416,1.93114 z"
       id="path4944-2" /><path
       style="fill:#ff832c;fill-opacity:1;stroke:none;stroke-width:0.264583px;stroke-linecap:butt;stroke-linejoin:miter;stroke-opacity:1"
       d="m 137.92386,110.23247 -6.92962,21.82992 -3.41655,0.62731 -1.47314,-1.37738 -0.68375,-3.03216 2.27062,-20.61943 3.92969,-1.11124 5.86961,1.64346 z"
       id="path430-6-2" /><path
       style="fill:#b54b00;fill-opacity:1;stroke:none;stroke-width:0.264583px;stroke-linecap:butt;stroke-linejoin:miter;stroke-opacity:1"
       d="m 137.49073,108.19297 -5.86958,-1.64347 -3.9297,1.11124 0.85194,2.84349 6.05992,1.32524 3.32054,-1.59698 z"
       id="path3398-2-7" /><path
       style="fill:#471e00;fill-opacity:1;stroke:none;stroke-width:0.264583px;stroke-linecap:butt;stroke-linejoin:miter;stroke-opacity:1"
       d="m 134.60332,111.82945 -7.02564,20.86026 3.41656,-0.62731 6.92962,-21.82993 z"
       id="path3400-9-0" /><path
       style="font-variation-settings:normal;vector-effect:none;fill:#8b3a00;fill-opacity:1;stroke:none;stroke-width:0.264583px;stroke-linecap:butt;stroke-linejoin:miter;stroke-miterlimit:4;stroke-dasharray:none;stroke-dashoffset:0;stroke-opacity:1;-inkscape-stroke:none;stop-color:#000000"
       d="m 134.60332,111.82945 -6.05991,-1.32524 -2.43886,20.8081 1.47314,1.37738 z"
       id="path4944-9" /><path
       style="fill:#ff832c;fill-opacity:1;stroke:none;stroke-width:0.264582px;stroke-linecap:butt;stroke-linejoin:miter;stroke-opacity:1"
       d="m 141.08954,142.86616 -10.17903,32.79365 -4.54752,1.27464 -3.34834,-1.14818 -0.99941,-4.43191 4.514,-31.00312 5.74377,-1.62426 8.18342,1.15817 z"
       id="path430-6-2-6" /><path
       style="fill:#b54b00;fill-opacity:1;stroke:none;stroke-width:0.264582px;stroke-linecap:butt;stroke-linejoin:miter;stroke-opacity:1"
       d="m 140.45648,139.88517 -8.18342,-1.15816 -5.74379,1.62423 1.24524,4.15615 7.25159,2.57769 6.06343,-4.21887 z"
       id="path3398-2-7-1" /><path
       style="fill:#471e00;fill-opacity:1;stroke:none;stroke-width:0.264582px;stroke-linecap:butt;stroke-linejoin:miter;stroke-opacity:1"
       d="m 135.0261,147.08504 -8.66311,29.84942 4.5475,-1.27464 10.17905,-32.79366 z"
       id="path3400-9-0-8" /><path
       style="font-variation-settings:normal;vector-effect:none;fill:#8b3a00;fill-opacity:1;stroke:none;stroke-width:0.264582px;stroke-linecap:butt;stroke-linejoin:miter;stroke-miterlimit:4;stroke-dasharray:none;stroke-dashoffset:0;stroke-opacity:1;-inkscape-stroke:none;stop-color:#000000"
       d="m 135.0261,147.08504 -7.25158,-2.57769 -4.75987,31.27892 3.34834,1.14817 z"
       id="path4944-9-7" /><path
       style="fill:#ff832c;fill-opacity:1;stroke:none;stroke-width:0.264582px;stroke-linecap:butt;stroke-linejoin:miter;stroke-opacity:1"
       d="m 114.20031,139.87906 -6.81152,31.9094 -6.11846,1.98672 -2.613459,-1.43805 -0.46393,-4.2086 2.451309,-33.43267 5.6439,-2.32002 6.86401,1.25175 z"
       id="path430-6-2-6-9" /><path
       style="fill:#b54b00;fill-opacity:1;stroke:none;stroke-width:0.264582px;stroke-linecap:butt;stroke-linejoin:miter;stroke-opacity:1"
       d="m 113.15221,133.62762 -6.86402,-1.25176 -5.6439,2.32001 1.5245,4.29082 7.43442,1.99241 4.5971,-1.09998 z"
       id="path3398-2-7-1-2" /><path
       style="fill:#471e00;fill-opacity:1;stroke:none;stroke-width:0.264582px;stroke-linecap:butt;stroke-linejoin:miter;stroke-opacity:1"
       d="m 109.60322,140.97907 -8.33289,32.79612 6.11845,-1.98671 6.81153,-31.90942 z"
       id="path3400-9-0-8-0" /><path
       style="font-variation-settings:normal;vector-effect:none;fill:#8b3a00;fill-opacity:1;stroke:none;stroke-width:0.264582px;stroke-linecap:butt;stroke-linejoin:miter;stroke-miterlimit:4;stroke-dasharray:none;stroke-dashoffset:0;stroke-opacity:1;-inkscape-stroke:none;stop-color:#000000"
       d="m 109.60322,140.97907 -7.43441,-1.9924 -3.511939,33.35044 2.613459,1.43807 z"
       id="path4944-9-7-2" /><path
       style="font-variation-settings:normal;display:inline;opacity:1;vector-effect:none;fill:#b54b00;fill-opacity:1;stroke:none;stroke-width:0.264583px;stroke-linecap:butt;stroke-linejoin:miter;stroke-miterlimit:4;stroke-dasharray:none;stroke-dashoffset:0;stroke-opacity:1;-inkscape-stroke:none;stop-color:#000000;stop-opacity:1"
       d="m 113.93484,105.88816 1.46037,2.9914 -4.25296,1.73277 -2.98231,-1.91775 -2.29393,-2.22623 3.76786,-2.25059 z"
       id="path6953" /><path
       style="font-variation-settings:normal;opacity:1;vector-effect:none;fill:#b54b00;fill-opacity:1;stroke:none;stroke-width:0.264583px;stroke-linecap:butt;stroke-linejoin:miter;stroke-miterlimit:4;stroke-dasharray:none;stroke-dashoffset:0;stroke-opacity:1;-inkscape-stroke:none;stop-color:#000000;stop-opacity:1"
       d="m 98.491341,120.85314 -4.03186,2.17936 -6.65025,2.09249 -2.306199,-0.35541 1.512248,-5.46805 6.787711,-2.32629 z"
       id="path7016" /><path
       style="font-variation-settings:normal;opacity:1;vector-effect:none;fill:#471e00;fill-opacity:1;stroke:none;stroke-width:0.264583px;stroke-linecap:butt;stroke-linejoin:miter;stroke-miterlimit:4;stroke-dasharray:none;stroke-dashoffset:0;stroke-opacity:1;-inkscape-stroke:none;stop-color:#000000;stop-opacity:1"
       d="m 98.491341,120.85314 -2.16911,30.02609 -6.32664,4.32161 4.46389,-32.16834 z"
       id="path7018" /><path
       style="font-variation-settings:normal;opacity:1;vector-effect:none;fill:#8b3a00;fill-opacity:1;stroke:none;stroke-width:0.264583px;stroke-linecap:butt;stroke-linejoin:miter;stroke-miterlimit:4;stroke-dasharray:none;stroke-dashoffset:0;stroke-opacity:1;-inkscape-stroke:none;stop-color:#000000;stop-opacity:1"
       d="m 94.459481,123.0325 -4.46389,32.16834 -2.247019,-1.08524 0.06071,-28.99061 z"
       id="path7020" /><path
       style="font-variation-settings:normal;opacity:1;vector-effect:none;fill:#471e00;fill-opacity:1;stroke:none;stroke-width:0.264583px;stroke-linecap:butt;stroke-linejoin:miter;stroke-miterlimit:4;stroke-dasharray:none;stroke-dashoffset:0;stroke-opacity:1;-inkscape-stroke:none;stop-color:#000000;stop-opacity:1"
       d="m 115.39521,108.87956 -4.23587,19.40261 -3.24429,1.89583 3.2272,-19.56567 z"
       id="path7022" /><path
       style="font-variation-settings:normal;opacity:1;vector-effect:none;fill:#8b3a00;fill-opacity:1;stroke:none;stroke-width:0.264583px;stroke-linecap:butt;stroke-linejoin:miter;stroke-miterlimit:4;stroke-dasharray:none;stroke-dashoffset:0;stroke-opacity:1;-inkscape-stroke:none;stop-color:#000000;stop-opacity:1"
       d="m 111.14225,110.61233 -3.2272,19.56567 -3.95536,-0.77326 4.20025,-20.71016 z"
       id="path7024" /></g></svg>
